<?xml version="1.0" encoding="UTF-8"?>
<svg version="1.1" xmlns="http://www.w3.org/2000/svg" width="128" height="116">
<path d="M0 0 C42.24 0 84.48 0 128 0 C128 38.28 128 76.56 128 116 C85.76 116 43.52 116 0 116 C0 77.72 0 39.44 0 0 Z " fill="#010100" transform="translate(0,0)"/>
<path d="M0 0 C1.40668945 -0.0309375 1.40668945 -0.0309375 2.84179688 -0.0625 C8.24632605 -0.09296951 11.98658382 0.25779205 16.6875 3.25 C16.875 6.125 16.875 6.125 16.6875 9.25 C15.6975 9.91 14.7075 10.57 13.6875 11.25 C13.16573615 14.10797614 12.80523611 16.80560361 12.5625 19.6875 C11.77817207 27.97798378 11.77817207 27.97798378 10.6875 31.25 C22.08624975 26.54663239 26.32430839 21.88892482 31.08251953 10.72070312 C31.84381862 8.88758123 32.56921372 7.03967323 33.29296875 5.19140625 C34.6875 2.25 34.6875 2.25 37.6875 0.25 C41.3125 0.0625 41.3125 0.0625 44.6875 0.25 C45.1825 0.745 45.1825 0.745 45.6875 1.25 C45.51659072 11.67546589 40.75668009 20.91136385 33.69921875 28.4921875 C30.06196451 31.67037082 25.93913153 33.99158808 21.6875 36.25 C22.12320313 36.71148437 22.55890625 37.17296875 23.0078125 37.6484375 C27.17527946 42.21280608 30.45937661 46.87989085 33.5234375 52.24609375 C34.53277598 54.18069362 34.53277598 54.18069362 35.6875 55.25 C38.88982099 55.92174175 38.88982099 55.92174175 42.6875 55.25 C44.96327327 53.54837062 46.90818835 51.71757376 48.890625 49.68359375 C49.48359375 49.21050781 50.0765625 48.73742187 50.6875 48.25 C52.1725 48.745 52.1725 48.745 53.6875 49.25 C54.09093144 52.54469006 54.29450853 55.16637736 52.6328125 58.1328125 C48.65484017 63.09990228 43.93727924 66.47513424 37.609375 67.62890625 C32.4662577 67.93317464 29.54296509 66.50572608 25.6875 63.25 C21.26804057 58.38859463 18.48865499 53.34540297 15.63867188 47.46484375 C13.68071872 43.58475713 13.68071872 43.58475713 10.44140625 40.796875 C9.86261719 40.61640625 9.28382812 40.4359375 8.6875 40.25 C8.65011719 40.86746094 8.61273438 41.48492187 8.57421875 42.12109375 C8.00149994 49.49905958 7.11405228 56.23320527 2.375 62.125 C-3.25972789 66.58036624 -7.56800868 67.81420123 -14.69140625 67.6015625 C-19.61849173 66.94070156 -22.21070014 64.29381039 -25.6875 61 C-27.98415623 57.113351 -27.75264856 54.72484365 -27.3125 50.25 C-26.6525 49.59 -25.9925 48.93 -25.3125 48.25 C-23.9925 48.25 -22.6725 48.25 -21.3125 48.25 C-19.85546875 50.21875 -19.85546875 50.21875 -18.5 52.75 C-17.05743512 55.24046822 -17.05743512 55.24046822 -15.3125 57.25 C-11.55606576 58.00413353 -11.55606576 58.00413353 -8.3125 57.25 C-5.24447901 51.62529486 -3.42188353 46.55596952 -2.3125 40.25 C-3.6325 40.25 -4.9525 40.25 -6.3125 40.25 C-6.9375 36.875 -6.9375 36.875 -7.3125 33.25 C-6.6525 32.59 -5.9925 31.93 -5.3125 31.25 C-3.9925 31.25 -2.6725 31.25 -1.3125 31.25 C-0.3225 23.99 0.6675 16.73 1.6875 9.25 C-7.55600993 9.57509219 -7.55600993 9.57509219 -12.3125 12.25 C-14.13517538 15.89535075 -13.26311075 20.27591537 -13.15234375 24.28125 C-13.3125 27.25 -13.3125 27.25 -15.3125 29.25 C-18.4375 29.375 -18.4375 29.375 -21.3125 29.25 C-24.86233401 23.77733923 -25.14285202 18.57199836 -24.3125 12.25 C-21.92946807 7.10265104 -18.13392798 4.05783857 -13.3125 1.25 C-8.90748891 -0.21833703 -4.61471062 0.02506292 0 0 Z " fill="#F2D364" transform="translate(52.3125,25.75)"/>
</svg>
